<?xml version="1.0" encoding="UTF-8"?>
<svg id="Layer_1" data-name="Layer 1" xmlns="http://www.w3.org/2000/svg" viewBox="0 0 27.8 32.06">
  <defs>
    <style>
      .cls-1 {
        fill: #e9b44c;
      }
    </style>
  </defs>
  <path class="cls-1" d="M13.83,0c3.57,0,4.79,2.77,5.12,6.11,1.45-.83,2.83-1.43,4.05-1.43,1.47,0,2.69.66,3.82,2.44.66,1,.97,1.98.97,2.92,0,2.43-2.05,4.43-4.55,6.11.82.58,1.61,1.2,2.27,1.85,1.32,1.26,2.19,2.61,2.19,4.17,0,.92-.23,1.83-.98,2.94-.68,1.05-1.42,1.71-2.23,2.04-.46.2-.96.29-1.43.29-1.3,0-2.52-.58-3.82-1.32-.17,3.26-1.21,5.85-4.95,5.94h-.17c-3.66,0-4.79-2.77-5.12-6.19-1.47.93-2.84,1.58-4.24,1.58-.97,0-1.86-.34-2.72-1.12-.36-.32-.68-.71-1-1.2-.74-1.1-.97-2.02-.97-2.94,0-1.78,1.17-3.31,2.84-4.75.53-.42,1.1-.87,1.7-1.27C2.12,14.47,0,12.47,0,10.04c0-.93.33-1.92.99-2.92,1.14-1.78,2.44-2.44,3.81-2.44,1.14,0,2.44.42,3.74,1.17C8.79,2.43,9.93,0,13.67,0h.17Z"/>
</svg>