<?xml version="1.0" encoding="UTF-8"?>
<svg id="Layer_1" data-name="Layer 1" xmlns="http://www.w3.org/2000/svg" viewBox="0 0 176.8 39.9">
  <defs>
    <style>
      .cls-1 {
        fill: #e9b44c;
      }

      .cls-2 {
        fill: #e4d6a7;
      }
    </style>
  </defs>
  <g>
    <path class="cls-1" d="M117.67,33.96c0,.29-.02.55-.02.79,0,.33.07.57.37.64.05,0,.09.02.14.02.39,0,.76-.43.76-1.02,0-.29-.09-.62-.3-.95-.86-1.36-2.57-1.86-3.89-3.84-.37-.57-.6-1.29-.6-2.02,0-1.69,1.14-3.48,4.08-3.67.14,0,.25-.02.39-.02,2.59,0,4.26,1.64,4.26,3.26,0,.57-.23,1.17-.72,1.67-.16.17-.6.31-1.09.31-.76,0-1.64-.33-1.67-1.36,0-.74-.35-1.02-.67-1.02-.35,0-.69.31-.69.76,0,.1.02.19.05.31.49,1.52,3.24,2.22,4.82,5.53.35.71.51,1.48.51,2.22,0,2.29-1.69,4.36-5.03,4.36-1.32,0-3.45-.38-4.26-3-.16-.55-.23-1.05-.23-1.52,0-1.72,1-2.91,2.25-2.91.19,0,.37.02.56.07.86.24,1,.83,1,1.41Z"/>
    <path class="cls-1" d="M131.87,27.86c-.86.07-1.11.55-1.25,1.31-.05.29-.05.64-.05.95.02.52.02,1.14.02,1.91.14,3.67.9,7.79-1.99,7.84-3.61.1-2.13-5.53-2.13-8.29,0-.57-.05-1.24-.12-1.93-.14-1.05-.42-1.67-1.46-1.69-1.2-.07-1.76-.52-1.78-1.72-.02-1.69,1.39-2.6,5.21-2.53h.19c3.66.1,4.68.86,4.75,2.31.05.93-.39,1.72-1.39,1.83Z"/>
    <path class="cls-1" d="M139.12,39.77c-1.74,0-3.52-1.07-4.45-3.48-.58-1.48-.95-3.95-.95-6.34,0-3.19.69-6.19,2.52-6.19h.02c1.85,0,2.11,2.53,2.11,5.12,0,.95-.05,1.91-.05,2.76,0,1.62.12,2.86.83,2.88h.02c.56,0,.69-.81.69-1.98,0-1.33-.19-3.14-.19-4.79,0-2.17.35-4.03,1.95-4.03h.07c1.85.05,2.48,3.67,2.48,7.12,0,2.07-.23,4.12-.56,5.29-.67,2.29-2.57,3.62-4.52,3.62Z"/>
    <path class="cls-1" d="M147.39,39.91c-1.9,0-2.27-1.98-2.27-4.15,0-1.45.16-3,.16-4.12,0-1.24-.25-2.93-.25-4.43,0-1.81.37-3.31,2.08-3.36h.05c1.97,0,2.25,2.07,2.25,4.38,0,.95-.05,1.95-.05,2.86,0,1.67.21,3.53.21,5.1,0,2.1-.37,3.69-2.15,3.72h-.02Z"/>
    <path class="cls-1" d="M160.27,32.29c0,.88-.12,1.76-.35,2.57-.97,3.34-3.64,5.05-6.14,5.05-.35,0-.69-.03-1.04-.1-1.6-.33-1.99-1.4-1.99-2.95s.35-3.38.35-5.48c0-1.31-.14-2.69-.56-4.1-.12-.38-.16-.72-.16-1.02,0-1.6,1.34-2.38,3.01-2.38,1.43,0,3.1.59,4.31,1.74,1.69,1.6,2.57,4.19,2.57,6.67Z"/>
    <path class="cls-1" d="M163.48,39.91c-1.9,0-2.27-1.98-2.27-4.15,0-1.45.16-3,.16-4.12,0-1.24-.25-2.93-.25-4.43,0-1.81.37-3.31,2.08-3.36h.05c1.97,0,2.25,2.07,2.25,4.38,0,.95-.05,1.95-.05,2.86,0,1.67.21,3.53.21,5.1,0,2.1-.37,3.69-2.15,3.72h-.02Z"/>
    <path class="cls-1" d="M176.8,33.24c0,3.45-1.39,6.57-4.96,6.67h-.21c-3.71,0-5.14-3.1-5.14-6.57,0-4.43,2.29-9.43,5.12-9.48h.02c2.89,0,5.16,4.98,5.16,9.39Z"/>
  </g>
  <g>
    <path class="cls-2" d="M5.13,39.82c-2.52,0-3.48-1.32-3.89-2.73-.64-2.31-1.24-7.53-1.24-12.85,0-5.6.69-11.3,2.65-13.6,1.78-2.12,5.08-2.68,8.01-2.68,1.51,0,2.88.14,3.94.33,1.97.33,2.88,1.88,2.88,3.39,0,1.6-1.01,3.15-2.97,3.15-.18,0-.32-.05-.5-.05-.37-.05-.69-.05-1.01-.05-2.93,0-4.03,1.79-4.03,3.39,0,1.18.59,2.26,1.46,2.45,1.83.38,3.8-.61,3.94,2.54v.47c0,3.11-1.69,2.45-3.39,2.87-.87.19-1.1,1.04-1.1,2.21,0,1.6.46,3.81.46,5.88,0,2.68-.82,5.08-4.81,5.27h-.41Z"/>
    <path class="cls-1" d="M31.67,15.44c-.73,0-1.42-.33-2.15-.75-.09,1.84-.69,3.29-2.79,3.34h-.09c-2.06,0-2.7-1.55-2.88-3.48-.82.52-1.6.89-2.38.89s-1.46-.38-2.11-1.32c-.41-.61-.55-1.13-.55-1.65,0-1.32,1.14-2.4,2.56-3.39-1.42-.94-2.61-2.07-2.61-3.44,0-.52.18-1.08.55-1.65.64-.99,1.37-1.36,2.15-1.36.64,0,1.37.24,2.11.66.14-1.93.78-3.29,2.88-3.29h.09c2.01,0,2.7,1.55,2.88,3.44.82-.47,1.6-.8,2.29-.8.82,0,1.51.38,2.15,1.36.37.56.55,1.13.55,1.65,0,1.36-1.14,2.49-2.56,3.44,1.37.99,2.52,2.07,2.52,3.39,0,.52-.14,1.04-.55,1.65-.6.94-1.33,1.32-2.06,1.32Z"/>
    <path class="cls-2" d="M50.85,39.72c-3.02,0-5.13-3.77-6.54-7.39v.38c0,4-.78,7.06-4.12,7.11h-.09c-3.57,0-4.3-3.91-4.3-8.19,0-2.87.32-5.93.32-8.1,0-2.49-.55-5.93-.55-8.9,0-3.53.78-6.45,3.98-6.54h.09c2.93,0,3.94,2.59,4.21,5.88,1.51-3.2,3.39-5.88,5.9-5.88.6,0,1.28.19,2.01.56,1.37.71,1.92,1.74,1.92,2.87,0,3.86-5.77,9.32-5.77,11.15v.05c.09,2.45,7.46,8.38,7.46,12.85,0,1.27-.6,2.45-2.15,3.39-.87.52-1.65.75-2.38.75Z"/>
    <path class="cls-2" d="M65.36,39.54c-3.43,0-6.96-2.12-8.79-6.87-1.14-2.92-1.88-7.81-1.88-12.52,0-6.31,1.37-12.24,4.99-12.24h.05c3.66,0,4.16,4.99,4.16,10.12,0,1.88-.09,3.77-.09,5.46,0,3.2.23,5.65,1.65,5.7h.05c1.1,0,1.37-1.6,1.37-3.91,0-2.64-.37-6.21-.37-9.46,0-4.28.69-7.95,3.84-7.95h.14c3.66.09,4.9,7.25,4.9,14.07,0,4.09-.46,8.14-1.1,10.45-1.33,4.52-5.08,7.15-8.92,7.15Z"/>
    <path class="cls-2" d="M86.77,27.68c0,1.65.82,4.42.82,6.97,0,2.68-.92,4.99-4.58,5.27h-.68c-4.12,0-4.94-2.64-4.94-6.68,0-2.97.46-6.68.46-10.68,0-2.73-.23-5.51-.92-8.33-.09-.33-.14-.66-.14-.99,0-3.15,4.03-5.04,8.42-5.04,5.4,0,11.35,2.78,11.35,9.23,0,8.75-9.79,6.97-9.79,10.26Z"/>
    <g>
      <path class="cls-2" d="M105.76,7.54c-4.48,0-8.05,3.58-8.05,8.04s3.57,8.13,8.05,8.13,8-3.58,8-8.13-3.48-8.04-8-8.04ZM105.81,22c-3.53,0-6.1-2.84-6.1-6.42s2.57-6.42,6.05-6.42,6,2.89,6,6.47-2.53,6.37-5.96,6.37Z"/>
      <path class="cls-2" d="M108.3,18.63c0,.34-.14.64-.52.88-.21.13-.4.2-.58.2-.76,0-1.28-1.05-1.64-2.03.04.23.05.48.05.71,0,.69-.2,1.3-1.02,1.36-.06,0-.11.01-.17.01-.92,0-1.12-.67-1.12-1.71,0-.76.11-1.71.11-2.74,0-.7-.05-1.42-.21-2.15-.02-.09-.02-.17-.02-.25,0-.9,1.05-1.44,2.17-1.44,1.24,0,2.55.66,2.61,2.29v.09c0,1.08-.66,1.55-1.3,1.84.45.76,1.64,1.97,1.64,2.92Z"/>
    </g>
  </g>
</svg>